# xmcd
#
# Track frame offsets:
#	150
#	14012
#	28977
#	42645
#	57002
#	71917
#	85945
#	99152
#	114432
#	128190
#	146807
#	160060
#	174712
#	190212
#	201167
#	215507
#	232152
#	246217
#	261357
#	270412
#	281885
#	295242
#	308147
#	320502
#	332812
#
# Disc length: 4620
#
# Revision: 2
# Processed by: cddbd v1.5.1PL0 Copyright (c) Steve Scherf et al.
# Submitted via: CDex 1.30Release
# Normalized: r1:TDELIM( - )
#
DISCID=8c120a19
DTITLE=Crooners - Les 100 Plus Grands Succes - CD1
DYEAR=2002
DGENRE=Blues
TTITLE0=Franck Sinatra - I'll Be Seeing You
TTITLE1=Franck Sinatra - Polka Dots And Moonbeams
TTITLE2=Franck Sinatra - Hear My Song Violetta
TTITLE3=Franck Sinatra - Star Dust
TTITLE4=Franck Sinatra - Blue Skies
TTITLE5=Franck Sinatra - Violet For You Furs
TTITLE6=Franck Sinatra - How About You
TTITLE7=Franck Sinatra - The Song Is You
TTITLE8=Franck Sinatra - Night And Day
TTITLE9=Franck Sinatra - Stormy Weather
TTITLE10=Franck Sinatra - How Depp Is The Ocean
TTITLE11=Franck Sinatra - I Fall In Love Too Easily
TTITLE12=Tony - Martin - Beguin The Beguine
TTITLE13=Pha Terrel - S'posin'
TTITLE14=Pha Terrel - What's Your Story
TTITLE15=Vaughan Monroe - Evelina
TTITLE16=Frankie Laine - Melancholy Madeline
TTITLE17=Fred Astaire - Cheek To Cheek
TTITLE18=Fred Astaire - Isn't This Is A Lovely Day
TTITLE19=Fred Astaire - Let's Face The Music
TTITLE20=Fred Astaire - A Fine Romance
TTITLE21=Fred Astaire - A Foggy Day
TTITLE22=Dooley Wilson - As Time Goes By
TTITLE23=Al Hibbler - Pretty Woman
TTITLE24=Al Hibbler - Do Nothing Till You Hear From Me
EXTD=YEAR: 2002 ID3G:   0
EXTT0=
EXTT1=
EXTT2=
EXTT3=
EXTT4=
EXTT5=
EXTT6=
EXTT7=
EXTT8=
EXTT9=
EXTT10=
EXTT11=
EXTT12=
EXTT13=
EXTT14=
EXTT15=
EXTT16=
EXTT17=
EXTT18=
EXTT19=
EXTT20=
EXTT21=
EXTT22=
EXTT23=
EXTT24=
PLAYORDER=
